<svg width="100" height="101" viewBox="0 0 100 101" fill="none" xmlns="http://www.w3.org/2000/svg">
<path d="M85.5124 33.774V100.5H14.4661V17.788H85.5124V30.556" fill="#E7E7EE"/>
<path d="M85.5124 33.774V100.5H14.4661V17.788H85.5124V30.556" stroke="#282839" stroke-linecap="round" stroke-linejoin="round"/>
<path d="M88.3282 12.408H11.6718V19.376H88.3282V12.408Z" fill="#E7E7EE" stroke="#282839" stroke-linecap="round" stroke-linejoin="round"/>
<path d="M56.626 100.5H43.3522V19.11V12.408H56.626V100.5Z" fill="#A5A4BC" stroke="#282839" stroke-linecap="round" stroke-linejoin="round"/>
<path d="M47.8712 19.376H43.3522" stroke="#282839" stroke-linecap="round" stroke-linejoin="round"/>
<path d="M51.4299 19.376H49.1823" stroke="#282839" stroke-linecap="round" stroke-linejoin="round"/>
<path d="M74.1157 35.538L66.5391 33.996L62.1508 38.362L49.988 12.408H63.2637L74.1157 35.538Z" fill="#A5A4BC" stroke="#282839" stroke-linecap="round" stroke-linejoin="round"/>
<path d="M62.9371 26.19L61.4519 23.014" stroke="#282839" stroke-linecap="round" stroke-linejoin="round"/>
<path d="M66.5396 33.9961L63.5474 27.5341" stroke="#282839" stroke-linecap="round" stroke-linejoin="round"/>
<path d="M27.7634 31.526L25.8842 35.538L33.4607 33.996L37.8272 38.362L49.9881 12.408H36.7143L31.1042 24.426" fill="#A5A4BC"/>
<path d="M27.7634 31.526L25.8842 35.538L33.4607 33.996L37.8272 38.362L49.9881 12.408H36.7143L31.1042 24.426" stroke="#282839" stroke-linecap="round" stroke-linejoin="round"/>
<path d="M30.3614 25.968L28.5276 29.894" stroke="#282839" stroke-linecap="round" stroke-linejoin="round"/>
<path d="M66.1451 0.5H61.7785C55.2733 0.5 49.988 5.836 49.988 12.408H66.1451C69.3986 12.408 72.0403 9.74 72.0403 6.454C72.0403 3.168 69.3986 0.5 66.1451 0.5Z" stroke="#282839" stroke-linecap="round" stroke-linejoin="round"/>
<path d="M33.8548 0.5H38.2213C44.7265 0.5 50.0118 5.836 50.0118 12.408H33.8548C30.6012 12.408 27.9595 9.74 27.9595 6.454C27.9595 3.168 30.6012 0.5 33.8548 0.5Z" stroke="#282839" stroke-linecap="round" stroke-linejoin="round"/>
</svg>
