<svg width="100" height="100" viewBox="0 0 100 100" fill="none" xmlns="http://www.w3.org/2000/svg">
<path d="M24.5993 47.8921C24.7047 47.7873 24.5993 47.7873 24.5993 47.6825C23.441 46.6349 22.4921 45.3792 22.0718 43.8092C20.7012 39.3073 23.2301 34.4911 27.7608 33.0259C29.7625 32.3973 31.7643 32.5021 33.4497 33.2354H33.5551V33.1307C33.2389 25.5935 37.9804 18.5788 45.5656 16.1707C54.5215 13.4497 64.1086 18.3692 66.8469 27.373C67.5849 29.6764 67.7958 32.0845 67.4795 34.3864V34.4911H67.5849C73.5902 33.4449 79.5954 37.004 81.3863 42.8664C83.3881 49.2526 79.8063 56.1625 73.2739 58.1516L62.4231 61.5011C62.4231 61.5011 62.3177 61.5011 62.3177 61.6059L60.5268 86.103C60.5268 86.103 60.5268 86.2078 60.4213 86.2078C60.3159 86.2078 60.3159 86.2078 60.3159 86.2078L44.8276 67.0492H44.7222L33.8714 70.4001C27.4445 72.3892 20.4903 68.8287 18.4886 62.3392C17.014 56.5802 19.5429 50.613 24.5993 47.8921Z" fill="#E7E7EE" stroke="#282839" stroke-linecap="round" stroke-linejoin="round"/>
<path d="M89.3377 59.7132C100.419 39.9214 101.117 20.1277 91.1355 9.93111C68.5733 -10.9607 50.0059 16.0285 50.0059 16.0285C50.0059 16.0285 31.4385 -10.9607 8.87635 9.93111C-8.1935 27.6258 5.88316 72.7092 50.0059 99C64.5805 90.303 75.9604 79.7068 83.8473 68.5111" fill="#CCCCDB"/>
<path d="M89.3377 59.7132C100.419 39.9214 101.117 20.1277 91.1355 9.93111C68.5734 -10.9607 50.0059 16.0285 50.0059 16.0285C50.0059 16.0285 31.4385 -10.9607 8.87635 9.93111C-8.1935 27.6258 5.88316 72.7092 50.0059 99C64.5805 90.303 75.9604 79.7068 83.8473 68.5111" stroke="#282839" stroke-linecap="round" stroke-linejoin="round"/>
<path d="M68.9726 43.9197H56.3955V31.3234H43.518V43.9197H30.9389V56.8149H43.518V69.4093H56.3955V56.8149H68.9726V43.9197Z" fill="white" stroke="#282839" stroke-linecap="round" stroke-linejoin="round"/>
</svg>
