<svg width="100" height="101" viewBox="0 0 100 101" fill="none" xmlns="http://www.w3.org/2000/svg">
<path d="M45.5568 44.0928C45.544 44.0928 45.544 44.0928 45.5568 44.0928L45.544 100.488C45.544 100.5 45.544 100.5 45.5568 100.5H72.5307C72.5419 100.5 72.5419 100.5 72.5419 100.488V44.1056C72.5419 44.0928 72.5419 44.0928 72.5307 44.0928L48.1835 42.6062C48.1835 42.6062 48.1835 42.6062 48.1708 42.6062L45.5568 44.0928Z" fill="#7D7D9B"/>
<path d="M45.5568 44.0928C45.544 44.0928 45.544 44.0928 45.5568 44.0928ZM45.5568 44.0928L45.544 100.488C45.544 100.5 45.544 100.5 45.5568 100.5H72.5307C72.5419 100.5 72.5419 100.5 72.5419 100.488V44.1056C72.5419 44.0928 72.5419 44.0928 72.5307 44.0928L48.1835 42.6062C48.1835 42.6062 48.1835 42.6062 48.1708 42.6062L45.5568 44.0928Z" stroke="#282839" stroke-linecap="round" stroke-linejoin="round"/>
<path d="M75.2529 31.4369L74.4128 18.3831C74.2092 15.2667 71.8465 12.702 68.752 12.2346L61.855 11.1311H61.8438V11.1438L61.9043 11.6717V11.6828C61.9043 11.6828 61.9043 11.6828 61.8916 11.6828H47.5836C44.3093 11.6828 41.6587 14.3318 41.6587 17.604V27.1217C41.6587 27.1217 41.6587 27.1328 41.646 27.1328L26.6905 34.6487C26.6905 34.6487 26.6778 34.6599 26.6905 34.6599L31.3188 43.9979C31.3188 43.9979 31.3315 44.009 31.3315 43.9979L45.4724 37.118H45.4835V37.1291L45.5201 44.0583C45.5201 44.0694 45.5201 44.0694 45.5328 44.0694H58.0779H58.0891V44.0822L56.506 47.1254V47.1381C56.506 47.1381 56.506 47.1381 56.5187 47.1509L66.1141 51.9685H66.1253L70.3828 44.0822L70.3955 44.0694H72.5179H72.5307C72.5307 44.0694 72.5307 44.0694 72.5307 44.0583L72.5068 40.139L73.8735 37.5966C74.9172 35.7267 75.3961 33.5818 75.2529 31.4369Z" fill="white" stroke="#282839" stroke-linecap="round" stroke-linejoin="round"/>
<path d="M28.6442 25.7193C28.6442 25.7065 28.6442 25.7065 28.6569 25.7065H43.6856C43.6967 25.7065 43.6967 25.7065 43.6967 25.7193V44.0821C43.6967 44.0932 43.6967 44.0932 43.6856 44.0932H28.6569C28.6442 44.0932 28.6442 44.0932 28.6442 44.0821V25.7193Z" fill="#A5A4BC" stroke="#282839" stroke-linecap="round" stroke-linejoin="round"/>
<path d="M34.6664 30.6445C34.6664 30.6334 34.6664 30.6334 34.6664 30.6445L30.4804 30.5602C27.3382 30.5125 24.7592 33.0184 24.7226 36.1586C24.6876 39.3227 27.2539 41.8874 30.4089 41.8762L34.6664 41.8524C34.6775 41.8524 34.6775 41.8524 34.6775 41.8397L34.6664 30.6445Z" fill="white"/>
<path d="M34.6664 30.6445C34.6664 30.6334 34.6664 30.6334 34.6664 30.6445ZM34.6664 30.6445L30.4804 30.5602C27.3382 30.5125 24.7592 33.0184 24.7226 36.1586C24.6876 39.3227 27.2539 41.8874 30.4089 41.8762L34.6664 41.8524C34.6775 41.8524 34.6775 41.8524 34.6775 41.8397L34.6664 30.6445Z" stroke="#282839" stroke-linecap="round" stroke-linejoin="round"/>
<path d="M58.5935 52.9983C58.6062 53.0111 58.6062 53.0111 58.5935 53.0222L56.8418 55.4676H56.8307C56.8307 55.4676 56.8179 55.4676 56.8179 55.4565L55.7504 52.639V52.6279C55.7504 52.6279 55.7504 52.6279 55.7631 52.6279L57.0948 52.472L58.5935 52.9983Z" fill="#A5A4BC" stroke="#282839" stroke-linecap="round" stroke-linejoin="round"/>
<path d="M53.8207 21.8471C53.8318 21.8471 53.8446 21.8471 53.8446 21.8471L58.0894 14.9195V14.9068L58.0782 14.8956H49.5982C49.5982 14.8956 49.587 14.8956 49.587 14.9068C49.587 14.9195 49.587 14.9195 49.587 14.9195L53.8207 21.8471Z" fill="#F3F4F7" stroke="#282839" stroke-linecap="round" stroke-linejoin="round"/>
<path d="M55.6075 25.7907C55.8732 25.7907 56.0864 25.576 56.0864 25.3105C56.0864 25.0466 55.8732 24.8319 55.6075 24.8319C55.3418 24.8319 55.127 25.0466 55.127 25.3105C55.127 25.576 55.3418 25.7907 55.6075 25.7907Z" fill="#7D7D9B" stroke="#282839" stroke-linecap="round" stroke-linejoin="round"/>
<path d="M55.6075 27.9353C55.8732 27.9353 56.0864 27.7207 56.0864 27.4567C56.0864 27.1912 55.8732 26.9766 55.6075 26.9766C55.3418 26.9766 55.127 27.1912 55.127 27.4567C55.127 27.7207 55.3418 27.9353 55.6075 27.9353Z" fill="#7D7D9B" stroke="#282839" stroke-linecap="round" stroke-linejoin="round"/>
<path d="M50.2455 15.7224C50.2455 15.7336 50.2455 15.7336 50.2455 15.7224C49.2512 15.7336 47.1399 15.7336 46.9601 15.7336C46.9474 15.7336 46.9474 15.7336 46.9474 15.7224C46.9474 15.5301 46.9474 13.0369 46.9474 12.1863C46.9474 12.1736 46.9474 12.1736 46.9601 12.1736C48.1597 12.0178 49.7539 12.2213 49.8748 12.234C49.8748 12.234 49.886 12.234 49.886 12.2467C49.9337 12.366 50.8581 14.5474 50.2455 15.7224Z" fill="#7D7D9B"/>
<path d="M50.2455 15.7224C50.2455 15.7336 50.2455 15.7336 50.2455 15.7224ZM50.2455 15.7224C49.2512 15.7336 47.1399 15.7336 46.9601 15.7336C46.9474 15.7336 46.9474 15.7336 46.9474 15.7224C46.9474 15.5301 46.9474 13.0369 46.9474 12.1863C46.9474 12.1736 46.9474 12.1736 46.9601 12.1736C48.1597 12.0178 49.7539 12.2213 49.8748 12.234C49.8748 12.234 49.886 12.234 49.886 12.2467C49.9337 12.366 50.8581 14.5474 50.2455 15.7224Z" stroke="#282839" stroke-linecap="round" stroke-linejoin="round"/>
<path d="M46.9472 5.16149C46.4444 6.22837 46.1564 7.4161 46.1564 8.67379C46.1564 9.561 46.2996 10.4005 46.551 11.2035C47.6186 14.463 50.6892 16.8241 54.3119 16.8241C57.7056 16.8241 60.6076 14.7507 61.8438 11.8029C61.831 11.6471 61.2312 5.59396 59.7452 3.97535C58.2338 2.3456 54.1083 2.33289 51.5293 2.33289C48.9741 2.33289 46.9838 5.10266 46.9472 5.16149Z" fill="white" stroke="#282839" stroke-linecap="round" stroke-linejoin="round"/>
<path d="M62.4676 8.66303C62.4676 7.40376 62.1796 6.21762 61.6753 5.15074C60.369 2.40481 57.5625 0.5 54.3121 0.5C51.0728 0.5 48.2662 2.38096 46.96 5.13801V5.15074H46.9711H49.407C50.3775 5.15074 51.2048 4.50361 51.4689 3.61639C51.4928 3.53212 51.6137 3.53212 51.6376 3.61639C51.9017 4.50361 52.7163 5.15074 53.6995 5.15074H58.2212C58.2339 5.15074 58.2339 5.15074 58.2339 5.16187V7.49916V8.19557V15.7099C58.2339 15.7226 58.2339 15.7226 58.245 15.7226H62.4437C62.4548 15.7226 62.4548 15.7226 62.4548 15.7099V8.90153C62.4676 8.82998 62.4676 8.74571 62.4676 8.66303Z" fill="#7D7D9B" stroke="#282839" stroke-linecap="round" stroke-linejoin="round"/>
<path d="M60.3692 39.7303L60.7161 37.0575C60.7161 37.0575 60.716 37.0463 60.7049 37.0463L59.3366 36.3738C59.3366 36.3738 59.3367 36.3738 59.3255 36.3738L57.8618 36.6743C57.8618 36.6743 57.8507 36.6743 57.8507 36.6854L57.5865 38.7238L57.4545 39.7064L55.7394 52.6156V52.6283C55.7394 52.6283 55.7394 52.6283 55.7505 52.6283L58.5809 52.9988C58.5936 52.9988 58.5936 52.9988 58.5936 52.9876L59.1807 48.5277C59.1807 48.5277 59.1807 48.5166 59.1696 48.5166L56.4951 47.1746C56.4951 47.1746 56.4951 47.1746 56.4824 47.1619V47.1508L60.3692 39.7303Z" fill="#A5A4BC" stroke="#282839" stroke-linecap="round" stroke-linejoin="round"/>
<path d="M60.9448 35.3428L60.7157 37.033C60.7157 37.0457 60.7045 37.0457 60.7045 37.0457L57.8741 36.6736H57.8614C57.8614 36.6736 57.8614 36.6736 57.8614 36.6609L58.0889 34.9708C58.1971 34.1805 58.9178 33.6288 59.7085 33.7369C60.5009 33.8323 61.0514 34.5526 60.9448 35.3428Z" fill="#7D7D9B" stroke="#282839" stroke-linecap="round" stroke-linejoin="round"/>
<path d="M45.509 24.4122V22.4581" stroke="#282839" stroke-linecap="round" stroke-linejoin="round"/>
<path d="M45.509 37.1418V25.7065" stroke="#282839" stroke-linecap="round" stroke-linejoin="round"/>
<path d="M53.8316 100.5V55.4808" stroke="#282839" stroke-linecap="round" stroke-linejoin="round"/>
<path d="M53.8316 21.8583V44.0928" stroke="#282839" stroke-linecap="round" stroke-linejoin="round"/>
<path d="M50.1134 9.15479V10.713" stroke="#282839" stroke-linecap="round" stroke-linejoin="round"/>
<path d="M52.2963 10.7128C52.2963 11.3122 51.8046 11.8035 51.2048 11.8035C50.605 11.8035 50.1134 11.3122 50.1134 10.7128" stroke="#282839" stroke-linecap="round" stroke-linejoin="round"/>
<path d="M60.369 39.7298L64.4341 31.9039H64.4229C62.2878 31.5922 60.8129 29.5904 61.1359 27.4567" stroke="#282839" stroke-linecap="round" stroke-linejoin="round"/>
<path d="M72.5181 40.1621L70.3957 44.0926" stroke="#282839" stroke-linecap="round" stroke-linejoin="round"/>
</svg>
