<svg width="101" height="101" viewBox="0 0 101 101" fill="none" xmlns="http://www.w3.org/2000/svg">
<path d="M23.8548 8.17098C31.5754 3.29252 40.6905 0.5 50.4357 0.5C78.0331 0.5 100.371 22.8736 100.371 50.5042C100.371 78.1348 78.0331 100.5 50.4357 100.5C22.8383 100.5 0.5 78.1348 0.5 50.5042C0.5 35.2296 7.33003 21.5447 18.1589 12.3513" fill="#E7E7EE"/>
<path d="M23.8548 8.17098C31.5754 3.29252 40.6905 0.5 50.4357 0.5C78.0331 0.5 100.371 22.8736 100.371 50.5042C100.371 78.1348 78.0331 100.5 50.4357 100.5C22.8383 100.5 0.5 78.1348 0.5 50.5042C0.5 35.2296 7.33003 21.5447 18.1589 12.3513" stroke="#282839" stroke-linecap="round" stroke-linejoin="round"/>
<path d="M77.4617 41.7567C74.933 41.7567 72.7151 42.8334 71.1357 44.4819V29.6531H56.3247C58.0301 31.2428 59.0466 33.5222 59.0466 35.9951C59.0466 40.8063 55.1234 44.7343 50.3096 44.7343C45.4958 44.7343 41.5725 40.8063 41.5725 35.9951C41.5725 33.4549 42.6478 31.2428 44.2944 29.6531H29.4834V71.4144H71.1945V56.5856C72.7823 58.3015 75.059 59.3108 77.5289 59.3108C82.3343 59.3108 86.2576 55.3828 86.2576 50.5632C86.2576 45.752 82.3343 41.7567 77.4617 41.7567Z" fill="#A5A4BC" stroke="#282839" stroke-linecap="round" stroke-linejoin="round"/>
</svg>
