<svg width="50" height="51" viewBox="0 0 50 51" fill="none" xmlns="http://www.w3.org/2000/svg">
<path d="M7.05359 23.2312C7.12806 23.1572 7.05359 23.1572 7.05359 23.0832C6.2354 22.3432 5.56515 21.4562 5.26827 20.3472C4.30014 17.1672 6.08646 13.7653 9.28674 12.7303C10.7007 12.2863 12.1147 12.3603 13.3052 12.8783H13.3797V12.8043C13.1563 7.48032 16.5055 2.52537 21.8634 0.82439C28.1895 -1.09759 34.9614 2.37738 36.8957 8.73731C37.417 10.3643 37.5659 12.0653 37.3425 13.6913V13.7653H37.417C41.6589 13.0263 45.9008 15.5402 47.1658 19.6812C48.5797 24.1922 46.0497 29.0731 41.4355 30.4781L33.7709 32.8441C33.7709 32.8441 33.6964 32.8441 33.6964 32.9181L32.4314 50.2219C32.4314 50.2219 32.4314 50.2959 32.3569 50.2959C32.2825 50.2959 32.2825 50.2959 32.2825 50.2959L21.3421 36.763H21.2677L13.6031 39.13C9.06332 40.535 4.15119 38.02 2.73723 33.4361C1.69563 29.3681 3.48195 25.1532 7.05359 23.2312Z" fill="#E7E7EE" stroke="#282839" stroke-width="0.591837" stroke-linecap="round" stroke-linejoin="round"/>
</svg>
