<svg preserveAspectRatio="none" width="100%" height="100%" overflow="visible" style="display: block;" viewBox="0 0 46.3535 46.3833" fill="none" xmlns="http://www.w3.org/2000/svg">
<g id="Group">
<path id="Vector" d="M31.2792 19.6336C33.1264 22.3646 34.2007 25.6463 34.2007 29.1758C34.2007 38.5796 26.5947 46.1917 17.1956 46.1917C7.79771 46.1917 0.191667 38.5796 0.191667 29.1758C0.191667 19.7719 7.79771 12.1611 17.1956 12.1611C21.8813 12.1611 26.1536 14.0635 29.2122 17.1528" fill="var(--fill-0, #A5A4BC)"/>
<path id="Vector_2" d="M31.2792 19.6336C33.1264 22.3646 34.2007 25.6463 34.2007 29.1758C34.2007 38.5796 26.5947 46.1917 17.1956 46.1917C7.79771 46.1917 0.191667 38.5796 0.191667 29.1758C0.191667 19.7719 7.79771 12.1611 17.1956 12.1611C21.8813 12.1611 26.1536 14.0635 29.2122 17.1528" stroke="var(--stroke-0, #282839)" stroke-width="0.383333" stroke-linecap="round" stroke-linejoin="round"/>
<path id="Vector_3" d="M7.57772 22.143C8.45983 20.9573 9.53421 19.9099 10.8021 19.1102" stroke="var(--stroke-0, #282839)" stroke-width="0.383333" stroke-linecap="round" stroke-linejoin="round"/>
<path id="Vector_4" d="M17.1957 41.0889C10.61 41.0889 5.29095 35.7665 5.29095 29.1754C5.29095 27.2453 5.75844 25.397 6.55762 23.7976" stroke="var(--stroke-0, #282839)" stroke-width="0.383333" stroke-linecap="round" stroke-linejoin="round"/>
<path id="Vector_5" d="M12.5941 18.199C14.0266 17.5917 15.5697 17.261 17.2233 17.261C23.8103 17.261 29.1293 22.5834 29.1293 29.1745C29.1293 34.497 25.6574 38.9921 20.8623 40.5361" stroke="var(--stroke-0, #282839)" stroke-width="0.383333" stroke-linecap="round" stroke-linejoin="round"/>
<path id="Vector_6" d="M17.1957 35.1051C20.4681 35.1051 23.1216 32.4487 23.1216 29.1754C23.1216 25.9021 20.4681 23.2469 17.1957 23.2469C13.922 23.2469 11.2709 25.9021 11.2709 29.1754C11.2709 32.4487 13.922 35.1051 17.1957 35.1051Z" fill="var(--fill-0, #E7E7EE)" stroke="var(--stroke-1, #282839)" stroke-width="0.383333" stroke-linecap="round" stroke-linejoin="round"/>
<path id="Vector_7" d="M17.1958 29.1754L41.0078 5.37599" stroke="var(--stroke-0, #282839)" stroke-width="0.383333" stroke-linecap="round" stroke-linejoin="round"/>
<path id="Vector_8" d="M34.2835 6.92107L41.0075 0.191672V5.37581L34.2835 12.1052V6.92107Z" fill="var(--fill-0, #7D7D9B)" stroke="var(--stroke-0, #282839)" stroke-width="0.383333" stroke-linecap="round" stroke-linejoin="round"/>
<path id="Vector_9" d="M39.4367 12.1054L46.1619 5.37599H41.0075L34.2835 12.1054H39.4367Z" fill="var(--fill-0, #7D7D9B)" stroke="var(--stroke-0, #282839)" stroke-width="0.383333" stroke-linecap="round" stroke-linejoin="round"/>
<path id="Vector_10" d="M44.0948 7.44315H38.9127" stroke="var(--stroke-0, #282839)" stroke-width="0.383333" stroke-linecap="round" stroke-linejoin="round"/>
<path id="Vector_11" d="M36.4323 6.36973V9.92683" stroke="var(--stroke-0, #282839)" stroke-width="0.383333" stroke-linecap="round" stroke-linejoin="round"/>
<path id="Vector_12" d="M42.303 9.21032H39.4644" stroke="var(--stroke-0, #282839)" stroke-width="0.383333" stroke-linecap="round" stroke-linejoin="round"/>
</g>
</svg>
