<svg preserveAspectRatio="none" width="100%" height="100%" overflow="visible" style="display: block;" viewBox="0 0 46.3833 46.4387" fill="none" xmlns="http://www.w3.org/2000/svg">
<g id="Group">
<path id="Vector" d="M23.1917 46.247C35.8938 46.247 46.1917 35.9367 46.1917 23.2194C46.1917 10.502 35.8938 0.191667 23.1917 0.191667C10.4896 0.191667 0.191667 10.502 0.191667 23.2194C0.191667 35.9367 10.4896 46.247 23.1917 46.247Z" fill="var(--fill-0, #E7E7EE)" stroke="var(--stroke-1, #282839)" stroke-width="0.383333" stroke-linecap="round" stroke-linejoin="round"/>
<g id="Group 28">
<path id="Vector_2" d="M18.567 34.8697H31.8103V19.5204H22.8194L26.1293 11.6319H20.9712L17.6613 19.5204H11.3175V34.8697H15.7762" fill="var(--fill-0, #A5A4BC)"/>
<path id="Vector_3" d="M18.567 34.8697H31.8103V19.5204H22.8194L26.1293 11.6319H20.9712L17.6613 19.5204H11.3175V34.8697H15.7762" stroke="var(--stroke-0, #282839)" stroke-width="0.383333" stroke-linecap="round" stroke-linejoin="round"/>
<path id="Vector_4" d="M22.8195 19.521C24.6641 19.521 26.1625 21.0212 26.1625 22.868" stroke="var(--stroke-0, #282839)" stroke-width="0.383333" stroke-linecap="round" stroke-linejoin="round"/>
<path id="Vector_5" d="M22.8195 26.2186C23.5154 26.2186 24.1413 26.0085 24.7009 25.662C25.6066 25.0685 26.1625 24.0548 26.1625 22.8678" stroke="var(--stroke-0, #282839)" stroke-width="0.383333" stroke-linecap="round" stroke-linejoin="round"/>
<path id="Vector_6" d="M35.3302 19.521H28.3238V23.3583H35.3302V19.521Z" fill="var(--fill-0, #A5A4BC)" stroke="var(--stroke-0, #282839)" stroke-width="0.383333" stroke-linecap="round" stroke-linejoin="round"/>
<path id="Vector_7" d="M35.3302 23.3577H28.3238V27.195H35.3302V23.3577Z" fill="var(--fill-0, #A5A4BC)" stroke="var(--stroke-0, #282839)" stroke-width="0.383333" stroke-linecap="round" stroke-linejoin="round"/>
<path id="Vector_8" d="M35.3302 27.1944H28.3238V31.0317H35.3302V27.1944Z" fill="var(--fill-0, #A5A4BC)" stroke="var(--stroke-0, #282839)" stroke-width="0.383333" stroke-linecap="round" stroke-linejoin="round"/>
<path id="Vector_9" d="M35.3302 31.0335H28.3238V34.8708H35.3302V31.0335Z" fill="var(--fill-0, #A5A4BC)" stroke="var(--stroke-0, #282839)" stroke-width="0.383333" stroke-linecap="round" stroke-linejoin="round"/>
</g>
</g>
</svg>
