<svg width="69" height="70" viewBox="0 0 69 70" fill="none" xmlns="http://www.w3.org/2000/svg">
<path d="M60.4223 35.4766H40.0585V43.9747H60.4223V35.4766Z" fill="#62627F" stroke="#282839" stroke-width="0.575" stroke-linecap="round" stroke-linejoin="round"/>
<path d="M40.0584 43.9746L34.5082 49.5361" stroke="#282839" stroke-width="0.575" stroke-linecap="round" stroke-linejoin="round"/>
<path d="M46.6095 38.4922V40.9403" stroke="#282839" stroke-width="0.575" stroke-linecap="round" stroke-linejoin="round"/>
<path d="M48.4331 38.4922V40.9403" stroke="#282839" stroke-width="0.575" stroke-linecap="round" stroke-linejoin="round"/>
<path d="M52.0637 38.4922V40.9403" stroke="#282839" stroke-width="0.575" stroke-linecap="round" stroke-linejoin="round"/>
<path d="M53.8708 38.4922V40.9403" stroke="#282839" stroke-width="0.575" stroke-linecap="round" stroke-linejoin="round"/>
<path d="M28.9414 53.0723H8.57764V61.5704H28.9414V53.0723Z" fill="#62627F" stroke="#282839" stroke-width="0.575" stroke-linecap="round" stroke-linejoin="round"/>
<path d="M28.9579 61.5703L34.4917 67.1318" stroke="#282839" stroke-width="0.575" stroke-linecap="round" stroke-linejoin="round"/>
<path d="M15.1454 56.0879V58.5361" stroke="#282839" stroke-width="0.575" stroke-linecap="round" stroke-linejoin="round"/>
<path d="M16.9526 56.0879V58.5361" stroke="#282839" stroke-width="0.575" stroke-linecap="round" stroke-linejoin="round"/>
<path d="M20.5829 56.0879V58.5361" stroke="#282839" stroke-width="0.575" stroke-linecap="round" stroke-linejoin="round"/>
<path d="M28.9414 17.8828H8.57764V26.3796H28.9414V17.8828Z" fill="white" stroke="#282839" stroke-width="0.575" stroke-linecap="round" stroke-linejoin="round"/>
<path d="M28.9579 26.3789L34.4917 31.9418" stroke="#282839" stroke-width="0.575" stroke-linecap="round" stroke-linejoin="round"/>
<path d="M15.1454 20.8984V23.348" stroke="#282839" stroke-width="0.575" stroke-linecap="round" stroke-linejoin="round"/>
<path d="M20.5829 20.8984V23.348" stroke="#282839" stroke-width="0.575" stroke-linecap="round" stroke-linejoin="round"/>
<path d="M22.4065 20.8984V23.348" stroke="#282839" stroke-width="0.575" stroke-linecap="round" stroke-linejoin="round"/>
<path d="M28.9414 0.287109H8.57764V8.78389H28.9414V0.287109Z" fill="#CCCCDB" stroke="#282839" stroke-width="0.575" stroke-linecap="round" stroke-linejoin="round"/>
<path d="M28.9579 8.7832L34.4917 14.3461" stroke="#282839" stroke-width="0.575" stroke-linecap="round" stroke-linejoin="round"/>
<path d="M15.1454 3.30273V5.75089" stroke="#282839" stroke-width="0.575" stroke-linecap="round" stroke-linejoin="round"/>
<path d="M16.9526 3.30273V5.75089" stroke="#282839" stroke-width="0.575" stroke-linecap="round" stroke-linejoin="round"/>
<path d="M18.7761 3.30273V5.75089" stroke="#282839" stroke-width="0.575" stroke-linecap="round" stroke-linejoin="round"/>
<path d="M22.4065 3.30273V5.75089" stroke="#282839" stroke-width="0.575" stroke-linecap="round" stroke-linejoin="round"/>
<path d="M34.5082 67.132V14.3477" stroke="#282839" stroke-width="0.575" stroke-linecap="round" stroke-linejoin="round"/>
<path d="M34.508 69.2866C35.6944 69.2866 36.6543 68.3206 36.6543 67.1296C36.6543 65.9373 35.6944 64.9727 34.508 64.9727C33.323 64.9727 32.3618 65.9373 32.3618 67.1296C32.3618 68.3206 33.323 69.2866 34.508 69.2866Z" fill="#62627F" stroke="#282839" stroke-width="0.575" stroke-linecap="round" stroke-linejoin="round"/>
<path d="M34.508 51.6934C35.6944 51.6934 36.6543 50.7274 36.6543 49.5364C36.6543 48.3455 35.6944 47.3809 34.508 47.3809C33.323 47.3809 32.3618 48.3455 32.3618 49.5364C32.3618 50.7274 33.323 51.6934 34.508 51.6934Z" fill="#62627F" stroke="#282839" stroke-width="0.575" stroke-linecap="round" stroke-linejoin="round"/>
<path d="M34.508 34.0991C35.6944 34.0991 36.6543 33.1317 36.6543 31.9421C36.6543 30.7498 35.6944 29.7852 34.508 29.7852C33.323 29.7852 32.3618 30.7498 32.3618 31.9421C32.3618 33.1317 33.323 34.0991 34.508 34.0991Z" fill="#62627F" stroke="#282839" stroke-width="0.575" stroke-linecap="round" stroke-linejoin="round"/>
<path d="M34.508 16.5034C35.6944 16.5034 36.6543 15.5374 36.6543 14.3464C36.6543 13.1541 35.6944 12.1895 34.508 12.1895C33.323 12.1895 32.3618 13.1541 32.3618 14.3464C32.3618 15.5374 33.323 16.5034 34.508 16.5034Z" fill="#62627F" stroke="#282839" stroke-width="0.575" stroke-linecap="round" stroke-linejoin="round"/>
</svg>
