<svg width="100" height="101" viewBox="0 0 100 101" fill="none" xmlns="http://www.w3.org/2000/svg">
<path d="M54.8013 0.5L36.8578 15.954C35.9245 16.76 35.7966 18.16 36.604 19.074L43.1567 26.864V49.47H66.4459V26.864L72.9987 19.074C73.806 18.14 73.6561 16.738 72.7449 15.954L54.8013 0.5ZM61.6098 20.75H47.9928L45.3629 17.608L54.8013 9.458L64.2617 17.608L61.6098 20.75Z" fill="white" stroke="#282839" stroke-linecap="round" stroke-linejoin="round"/>
<path d="M51.1742 16.038C56.2022 12.112 59.7653 16.888 59.7653 16.888C60.103 17.63 60.2949 18.458 60.2949 19.308C60.2949 19.902 60.2109 20.516 60.0191 21.048C59.2777 23.298 57.1554 24.954 54.6534 24.954C53.6342 24.954 52.681 24.656 51.8537 24.232C47.2294 20.75 50.5387 16.526 51.1742 16.038Z" fill="white" stroke="#282839" stroke-linecap="round" stroke-linejoin="round"/>
<path d="M57.5793 19.4559V20.7499" stroke="#282839" stroke-linecap="round" stroke-linejoin="round"/>
<path d="M56.0741 20.75C56.0741 21.154 56.4338 21.514 56.8375 21.514C57.2611 21.514 57.6009 21.176 57.6009 20.75" stroke="#282839" stroke-linecap="round" stroke-linejoin="round"/>
<path d="M49.012 20.666V19.52C49.012 19.456 49.012 19.434 49.012 19.35C49.012 18.5 49.2018 17.672 49.5635 16.93C50.4748 15.02 52.4252 13.704 54.6534 13.704C56.8796 13.704 58.852 15.02 59.7433 16.93H58.0247C57.1974 16.93 56.5399 16.25 56.5399 15.444C56.5399 16.272 55.8625 16.93 55.0351 16.93H51.8956V18.542V19.01V23.552C51.8956 23.786 51.8537 23.998 51.8317 24.232C51.514 25.526 50.3689 26.502 48.968 26.502C47.3353 26.502 46.0424 25.186 46.0424 23.574C46.0843 21.96 47.3993 20.666 49.012 20.666Z" fill="#7D7D9B" stroke="#282839" stroke-linecap="round" stroke-linejoin="round"/>
<path d="M54.8013 9.458V0.5" stroke="#282839" stroke-linecap="round" stroke-linejoin="round"/>
<path d="M43.1367 45.714L31.4281 57.43L27.9929 60.87C25.2571 63.608 26.3802 68.278 30.0712 69.466L53.6562 77.066V100.5H66.4459V45.734L43.1367 45.714ZM45.4908 62.08L53.5923 56.942V64.818L45.4908 62.08Z" fill="#7D7D9B" stroke="#282839" stroke-linecap="round" stroke-linejoin="round"/>
<path d="M53.6344 64.818L59.7655 66.856L56.1164 77.914L53.6344 77.108" stroke="#282839" stroke-linecap="round" stroke-linejoin="round"/>
<path d="M53.6344 52.146V56.964" stroke="#282839" stroke-linecap="round" stroke-linejoin="round"/>
</svg>
